<?xml version="1.0" standalone="no"?>
<!DOCTYPE svg PUBLIC "-//W3C//DTD SVG 20010904//EN"
 "http://www.w3.org/TR/2001/REC-SVG-20010904/DTD/svg10.dtd">
<svg version="1.0" xmlns="http://www.w3.org/2000/svg"
 width="2500.000000pt" height="2500.000000pt" viewBox="0 0 2500.000000 2500.000000"
 preserveAspectRatio="xMidYMid meet">
<metadata>
Created by potrace 1.11, written by Peter Selinger 2001-2013
</metadata>
<g transform="translate(0.000000,2500.000000) scale(0.100000,-0.100000)"
fill="#000000" stroke="none">
<path d="M13575 22094 c-11 -2 -51 -12 -90 -20 -77 -18 -242 -82 -357 -140
-40 -20 -190 -103 -333 -184 -143 -82 -285 -160 -315 -176 -46 -23 -262 -237
-1350 -1346 -712 -725 -1303 -1328 -1312 -1341 -9 -12 -224 -796 -478 -1747
-254 -949 -464 -1727 -466 -1729 -2 -3 -21 11 -42 31 -243 231 -3786 3448
-3797 3448 -8 0 -15 -6 -15 -12 0 -7 659 -1228 1464 -2713 l1464 -2699 534
-424 c293 -233 536 -427 540 -431 5 -4 106 -271 227 -594 l218 -588 -122
-3522 c-68 -1937 -131 -3710 -141 -3939 -10 -230 -15 -421 -11 -425 8 -8 2559
-362 2567 -356 2 2 -235 243 -527 536 l-531 532 706 2105 c756 2257 772 2304
783 2293 3 -5 569 -1043 1257 -2308 751 -1382 1323 -2447 1433 -2668 l184
-367 1150 1 c632 1 1277 5 1433 8 l283 6 -473 293 c-260 161 -605 375 -767
475 l-294 182 -689 1255 -689 1255 -193 2598 -194 2598 2468 3617 2468 3617
-27 22 c-14 13 -29 23 -33 23 -4 0 -27 -21 -50 -46 -24 -26 -119 -104 -213
-174 -93 -70 -503 -406 -910 -746 -407 -340 -877 -731 -1044 -869 -1075 -883
-1319 -1094 -1706 -1475 -349 -344 -462 -437 -621 -512 -60 -29 -79 -33 -149
-33 -68 0 -102 7 -231 49 l-152 49 -36 221 c-59 368 -61 387 -60 741 1 324 12
526 50 855 13 119 17 137 37 150 87 59 152 146 187 250 18 54 21 81 18 160 -6
112 -29 180 -89 259 l-40 53 30 237 c74 573 91 801 98 1326 9 684 -26 1076
-132 1483 -55 210 -115 352 -211 500 -114 175 -262 291 -430 336 -59 16 -241
29 -279 20z m206 -388 c129 -46 253 -254 381 -639 97 -294 221 -809 288 -1198
l22 -126 -22 -414 c-18 -344 -41 -615 -139 -1609 l-119 -1195 10 -1575 10
-1575 -1017 -2075 c-559 -1141 -1020 -2079 -1025 -2083 -4 -5 -18 22 -29 59
-12 37 -90 247 -173 468 -82 221 -422 1130 -755 2021 -333 891 -641 1717 -685
1835 l-81 215 6 280 c37 1677 454 3368 1194 4850 465 930 1090 1828 1723 2479
182 187 270 265 318 282 46 16 48 16 93 0z m-2857 -3494 c158 -86 148 -318
-19 -405 -83 -43 -200 -21 -267 50 -99 104 -71 294 54 359 75 39 154 38 232
-4z m5649 -3071 c-1691 -2467 -1968 -2867 -1971 -2841 -2 16 31 535 73 1152
l77 1123 26 27 c67 67 3756 3417 3759 3414 2 -2 -882 -1296 -1964 -2875z
m-9187 1027 c1477 -1542 1620 -1695 1627 -1732 9 -50 139 -1594 135 -1606 -2
-5 -244 178 -538 406 l-535 415 -1161 2104 c-639 1158 -1159 2105 -1155 2105
4 0 736 -761 1627 -1692z"/>
<path d="M13090 17325 c-30 -24 -64 -44 -75 -44 -11 0 -71 12 -133 28 l-114
29 -78 -69 -79 -69 -118 0 -118 0 -61 -78 -61 -78 -99 -13 c-159 -21 -147 -15
-205 -102 -29 -44 -56 -82 -60 -85 -6 -3 -212 -44 -225 -44 -2 0 -26 -40 -54
-90 -29 -49 -57 -93 -64 -98 -6 -5 -47 -16 -90 -25 -44 -9 -88 -24 -98 -34
-10 -9 -28 -48 -40 -87 -11 -39 -22 -72 -23 -74 -1 -1 -39 -13 -84 -26 -109
-32 -121 -44 -121 -117 l0 -58 94 48 c52 27 133 63 181 80 76 27 93 38 142 91
l55 60 102 0 102 0 62 46 62 46 109 -19 109 -20 67 56 67 57 113 -20 113 -19
65 36 66 36 102 -34 c57 -19 109 -35 117 -35 7 0 49 15 92 34 l78 35 91 -36
91 -36 83 36 83 36 123 -36 123 -36 74 36 75 37 98 -79 98 -79 101 -9 c122
-10 128 -3 48 56 -41 31 -55 48 -60 75 -20 105 -34 131 -95 175 -33 24 -62 53
-64 65 -3 11 -11 54 -18 94 -14 81 -2 75 -98 56 -27 -5 -34 1 -112 110 -46 64
-88 116 -94 116 -5 0 -43 -9 -84 -20 l-75 -19 -104 80 c-58 43 -110 79 -116
79 -6 -1 -36 -21 -66 -45z"/>
</g>
</svg>
